<svg xmlns="http://www.w3.org/2000/svg" viewBox="0 0 3194.3 836.4"><path d="M320 339.4c50.7 35.8 89 88 107.5 148.8 28.2-61.8 49.3-127.1 49.3-184.3 0-19.4-2.9-38.2-8.1-55.9A307.03 307.03 0 0 0 320 339.4" fill="#fabf37"/><path d="M320 339.4c39-42.9 91.1-75.9 148.7-91.5-3.5-11.8-8.1-23.3-13.6-33.8-1.7.9-3.5 1.7-5.2 2.6A311.8 311.8 0 0 0 320 339.4" fill="#da7f0a"/><path d="M272.5 286.5a4.8 4.8 0 1 1-4.8 4.8c.1-2.7 2.2-4.8 4.8-4.8" fill="#a7a5a6"/><path d="M204.8 126.3c24.1-10.8 50.4-16.9 78.4-16.9 28.7 0 55.9 6.3 80.3 17.5a179.51 179.51 0 0 0-71.1-34.6 257.2 257.2 0 0 0-55.2-5.9h-1.8C159.4 85.9 90.3 52.7 43.2 0c29.2 60.3 89.5 105.4 154.3 124.4 2.1.6 4.7 1.3 7.3 1.9" fill="#3ab6d7"/><path d="M0 123c39.2-4.1 78.4-1.8 115.5 9-8-7.9-15.5-16.3-22.5-25.1-32.5-1-63.9 4.7-93 16.1" fill="#78cb19"/><path d="M131.2 184.6c-56.1-6-96.1 25.7-96.7 26.4 11.8-7.9 24.9-11.7 40.2-11.7 14.3 0 28.2 4.7 39.4 11.7 5-9.2 10.7-17.9 17.1-26.4" fill="#ee980d"/><path d="M377.5 134c-27.9-15.7-59.1-24.7-93.4-24.7-106.9 0-193.5 87-193.5 194.4 0 173.4 193.5 421 193.5 421S362.9 624 419.9 506c-11.2-56.1-38.8-107.1-77.5-146.2l-.1.1A84.42 84.42 0 0 1 198.4 300c0-43.9 33.6-80 76.5-84 28.4-33.5 63.3-61.4 102.6-82" fill="#d13926"/><path d="M282.7 274.4c-14 0-25.3 11.3-25.3 25.3s11.3 25.3 25.3 25.3 25.3-11.3 25.3-25.3-11.3-25.3-25.3-25.3M272.5 296a4.8 4.8 0 1 1 4.8-4.8c0 2.7-2.1 4.8-4.8 4.8" fill="#231f20"/><path d="M119.6 174.5c-30.9 2.4-61.8 15.9-85.1 36.4 2.7-2.2 42.1-32.2 96.7-26.4-3.8-3.4-7.6-6.8-11.6-10" fill="#f6c229"/><path d="M110.8 167.7c-28.8 7.1-55.9 23.1-76.4 43.2 23.3-20.5 54.3-34 85.1-36.4-2.8-2.3-5.7-4.6-8.7-6.8" fill="#f3b623"/><path d="M131.2 184.6c6.3-7.7 13.2-15.8 20.7-22.8 0 .2 0 .1 0 0a267.16 267.16 0 0 0-92.3-35.5C40.6 122.9 1 122.6.1 123c3.7.5 7.8 1.2 11.5 1.9 46.2 8.3 87.5 30.6 119.6 59.7" fill="#4cae09"/><path d="M115.5 132c-.1 0 .1 0 0 0-36.8-10.7-76.6-13-115.5-9 6.4-.2 42.1.2 59.5 3.3 33.7 6 64.8 18.5 92.3 35.5-12.9-8.8-25.1-18.8-36.3-29.8" fill="#b6dd57"/><path d="M151.9 161.8c.1-.2-.2.2 0 0 11.1-10.3 23.8-19.8 37-27.3-.1 0 .1 0 0 0A244.66 244.66 0 0 1 43.2 0c14 67 54.1 124.7 108.7 161.8" fill="#209bc7"/><path d="M204.8 126.3c-2.6-.6-5.3-1.3-7.4-2C132.6 105.4 72.3 60.3 43.2 0a244.66 244.66 0 0 0 145.7 134.5c5.2-3 10.5-5.7 15.9-8.2" fill="#4fcae3"/><path d="M427.5 488.2a283.6 283.6 0 0 0-83.7-129.9c-.5.5-1 1-1.4 1.5l.1-.1c38.7 39.1 66.3 90.1 77.5 146.2 3.6-7.6 8.3-19.5 7.5-17.7" fill="#ca3322"/><path d="M320 339.4a53.38 53.38 0 0 1-37.3 15.2c-29.8 0-54-24.6-54-54.9 0-8.2 1.8-16 5-23 11.4-21.8 25.4-42.2 41.3-60.9-42.9 4-76.5 40.1-76.5 84.1a84.42 84.42 0 0 0 143.9 59.9c.5-.5 1-1 1.4-1.5-7.6-6.7-15.5-13-23.8-18.9" fill="#a92f1e"/><path d="M377.5 134c-61.3 32.1-112.1 82.1-143.9 142.6-3.2 7-5 14.8-5 23 0 30.3 24.2 54.9 54 54.9 14.5 0 27.6-5.8 37.3-15.2 30.2-52.5 75.5-95.4 129.9-122.6a84 84 0 0 1 5.2-2.6 194.81 194.81 0 0 0-77.5-80.1m-94.8 191c-14 0-25.3-11.3-25.3-25.3s11.3-25.3 25.3-25.3 25.3 11.3 25.3 25.3-11.3 25.3-25.3 25.3" fill="#ececec"/><path d="M3097.4 542.3c24.6 0 40.9 11 33.9 70.4-7 55.9-26.8 70.4-51.5 70.4-24.2 0-40.9-14.5-33.9-70.4 7.1-59.3 26.9-70.4 51.5-70.4m-25.5 188c63.8 0 108.3-31.7 118.8-118 10.6-87.1-24.2-117.5-87.1-117.5-60.7 0-106.1 31.2-116.6 118-11.1 86.7 24.6 117.5 84.9 117.5M2909 464h61.2l7.9-65.1H2917l-8 65.1zm56.8 34.8h-61.2l-27.3 225.8h61.2l27.3-225.8zm-106 14.9c-28.2-15.8-60.3-19.8-80.5-19.8-90.7 0-123.7 60.7-131.2 122.8-7.5 58.5 12.8 112.2 76.6 112.2 14.1 0 32.6-1.3 50.6-15l-1.8 13.6c-5.7 44.5-24.6 52.4-50.2 52.4-18 0-51.1-4.8-79.7-12.3l-13.2 47.1c27.7 10.1 60.3 15.8 84.5 15.8 54.1 0 108.7-23.3 118.8-105.6l26.1-211.2zm-151.4 100.8c4.4-33.4 13.6-73.5 60.7-73.5 8.4 0 17.6.4 26.8 4.4l-15.8 126.8c-11.9 7.9-21.1 9.2-29.9 9.2-37 0-46.2-28.6-41.8-66.9m-75.7-100.8c-28.2-15.8-60.3-19.8-80.5-19.8-90.7 0-123.7 60.7-131.2 122.8-7.5 58.5 12.8 112.2 76.6 112.2 14.1 0 32.6-1.3 50.6-15l-1.8 13.6c-5.7 44.5-24.6 52.4-50.2 52.4-18 0-51.1-4.8-79.7-12.3l-13.2 47.1c27.7 10.1 60.3 15.8 84.5 15.8 54.1 0 108.7-23.3 118.8-105.6l26.1-211.2zm-151.4 100.8c4.4-33.4 13.6-73.5 60.7-73.5 8.4 0 17.6.4 26.8 4.4L2553 672.2c-11.9 7.9-21.1 9.2-29.9 9.2-37 0-46.2-28.6-41.8-66.9M2309.6 707c4.8 15.8 20.2 22.9 40.1 22.9 14.5 0 30.8-4 46.7-11l2.2-40c-4.4 2.6-10.1 4.4-15.8 4.4-7.5 0-13.6-3.5-12.8-12.3l19.8-158.9c-28.2-12.8-54.6-17.6-79.2-17.6-88.9 0-123.7 60.3-131.6 120.6-7.5 59.9 9.7 114.4 76.6 114.4 22.3-.1 42.1-10.2 54-22.5m.5-33.5c-11.4 7.5-24.2 9.7-32.6 9.7-32.6 0-41.8-31.2-37.9-64.3 4.8-37.8 18.9-77.9 61.2-77.9 8.4 0 15 .4 24.2 5.7l-14.9 126.8zM2101.4 464h61.2l7.9-65.1h-61.2l-7.9 65.1zm56.8 34.8H2097l-27.3 225.8h61.2l27.3-225.8zm-268 225.8h62.5l134.2-294H2024l-93.7 220.1-39.2-220.1h-62.9l62 294zm-303.3 0h59.4l21.1-175.2c11.9-6.6 30.4-9.7 44.9-9.7 20.2 0 35.2 8.4 31.2 38.3L1726 724.6h59l18.5-151.8c7.9-66-31.7-78.8-75.7-78.8-46.2 0-95.5 17.2-115.8 26l-25.1 204.6zM1514.3 464h61.2l7.9-65.1h-61.2l-7.9 65.1zm56.8 34.8h-61.2l-27.3 225.8h61.2l27.3-225.8zm-228 153.1c-4.8 37.9-9.7 78.3 57.7 78.3 7.5 0 29.5-.9 49.3-9.2l-.9-43.6c-12.3 3.1-24.6 4-30.4 4-14.5 0-17.2-7.5-15.4-23.8l14.5-116.2h59l8.4-42.7h-62.1l7-56.3-60.7 5.3-6.6 51.5h-39.6l-4.8 42.3h38.3l-13.7 110.4zM1209.8 707c4.8 15.8 20.2 22.9 40.1 22.9 14.5 0 30.8-4 46.7-11l2.2-40c-4.4 2.6-10.1 4.4-15.8 4.4-7.5 0-13.6-3.5-12.8-12.3l19.8-158.9c-28.2-12.8-54.6-17.6-79.2-17.6-88.9 0-123.7 60.3-131.6 120.6-7.5 59.9 9.7 114.4 76.6 114.4 22.3-.1 42.1-10.2 54-22.5m.4-33.5c-11.4 7.5-24.2 9.7-32.6 9.7-32.6 0-41.8-31.2-37.9-64.3 4.8-37.8 18.9-77.9 61.2-77.9 8.4 0 15 .4 24.2 5.7l-14.9 126.8zM995 556c10.6-7 34.3-10.6 53.3-10.6 5.7 0 16.3.4 22.9 1.3l12.3-50.2c-7-1.3-14.1-1.8-20.2-1.8-24.2 0-49.7 9.2-69.1 25.1v-21.1h-52.4l-27.3 225.8h59.9L995 556zm-153.2-92H903l7.9-65.1h-61.2l-7.9 65.1zm56.8 34.8h-61.2l-27.3 225.8h61.2l27.3-225.8zm-243.8 74.4l11.4-95.5c8.8-1.8 19.4-3.5 30.8-3.5 26 0 52.8 9.7 47.1 53.7-4.8 39.6-30.8 48-59.9 48-10-.1-20.2-.5-29.4-2.7m-81.9 151.4h63.4l13.2-108.7c15.4 3.5 29.9 5.3 44.5 5.3 56.3 0 102.5-28.2 110.9-95.1 10.1-82.7-44.5-98.6-102.1-98.6-34.3 0-70 3.5-94.6 8.8l-35.3 288.3z" fill="#fff"/></svg>